<svg id="Layer_1" data-name="Layer 1" xmlns="http://www.w3.org/2000/svg" viewBox="0 0 45.89 17.17"><defs><style>.cls-1{opacity:0.8;}.cls-2{fill:#da2222;}</style></defs><title>assets</title><g class="cls-1"><path class="cls-2" d="M15.77,12.26l1.1,0.8L17.09,13a2.08,2.08,0,0,0-1.37-1Z"/><path class="cls-2" d="M45.44,9.2L45,9.19l-0.47.25-2.93-.08L41,9.08V9.34L32.16,8.27l-0.58.25L31,8.5V8L30.69,8l-0.39.25-1.84-.06-1.39-.57-8.46-.26-6.53-.44a35.07,35.07,0,0,0,5-2.73L17,3.62l-0.68.17,0-.26Q18,3.09,17.44,0l-1.25.85-0.73-.09Q15.75,2.24,3.4,5.64L2.05,6l-0.27-.2L1.83,6,1.1,5.94,0,6.47,0.12,7l0.27,0.2,0.23-.06L0.8,6.82l0.68-.17L2,7.05,1.3,7A1.63,1.63,0,0,0,.06,9.16l0.1,0.51a0.72,0.72,0,0,1,1,.55L1,10.53,1.13,11l9.6,3.27q3.87,1.7,4.79,2.85L16.2,17a0.62,0.62,0,0,0-.82-0.6l-0.1-.51q0.57-.14.87,0.86l0.68-.17Q15.66,15.25,15,15.43l-0.15-.77,1.6,1,0.71-1.25L17,13.84l-3.25-2.16-0.23.06,0.55,0.4,0,0.26-0.77-.35,0.18-.31-1.08-.51L14,11.15l1,0.5,0.29-.06A0.53,0.53,0,0,1,15,11.37V11.15l0.4,0.28,0.44,0,0.45-.26L19,11.27a154.55,154.55,0,0,1,23,2.31V13.32l0.54,0.28,1.92-.48c0-.7.49-1,1.43-1ZM8,8.67l-0.1-.36L9.62,8.36V8.89L9,8.86l0,0-0.09,0-0.6,0Zm2-1,0.11-.19,0,0.12ZM11.12,4l0,0.26L10,4.53l0-.26Zm-1.75.7L9.41,5l-2.48.62,0-.26Zm-5.93,6,0-.26,0.18-.31a1.73,1.73,0,0,1,1.32.75Zm2.77,0.93-0.82-.6L5.61,11l0.82,0.6Zm8,2.32,0,0.26L14,14.31l-1-.55,0-.26ZM28,8.67L25,8.6V8.33l3,0.08V8.67Zm4.34,0.4-2-.09V8.72l2,0.09V9.08ZM37,9.48l-3-.09V9.12l3,0.09V9.48Z"/></g></svg>