<svg id="Layer_1" data-name="Layer 1" xmlns="http://www.w3.org/2000/svg" viewBox="0 0 32.92 31.16"><defs><style>.cls-1{fill:#da2222;}</style></defs><title>assets</title><polygon class="cls-1" points="31.07 7.21 30.46 5.37 29.5 5.56 30.1 7.39 31.07 7.21"/><path class="cls-1" d="M32.76,10.78L32.28,9.32q-1,.18-0.36,2l-0.48.09L27.32,3.63l0.48-.09,0.6,0.27,1-.18L26.71,1.8l-0.12-.37L27,1A24.78,24.78,0,0,0,15.48.43Q6.59,3.07,7.15,4.75l0.48-.09,2.9-2.11Q2,12.89,2,18.6l-0.48.09-0.12-.37A28.18,28.18,0,0,1,4.5,9.15L4.37,8.79Q-0.84,17.85.16,20.9l0.24,0.73L1.74,24.1l-0.36.46L4,26.4q5.32,6.39,16.8,4.21l0.48-.09,2.29-.83q5.73-4.33,8-8.53l-0.48.09Q33.45,12.85,32.76,10.78ZM2.58,23.55l-1-2.93,0.48-.09,1,2.93ZM6,16.67l-0.48.09,0.72-2.48,0.48-.09ZM12,28.77l-0.12-.37L14.67,29l0.12,0.37Zm9-10.82,0,0.25-2.54.13c0,0.41-.06.82-0.09,1.23l-0.07,1.09,0.2,0.15v0.1l-0.21.1h0.2l-0.21.27,0.12,1.43,0,0.35A9,9,0,0,0,17.22,25h-0.8l-1-.33,0.28-1.36L15,22.53l0.36-3,0.08-1.47a1,1,0,0,0-.31.31l-0.06.25L14,18.52l-0.21-.28-0.08.25,0.23,0.28-1.09-.12,0.08-.25,0.32-.21,0-.25-0.32.22-1-.1,0-.18-2.14-.56L9.85,17h1.69l0.09-.37A0.62,0.62,0,0,1,11,15.8l-2.1-.46L9.15,15c0.14-.48.85-0.74,2.85-0.79V14.05l0.93-.21,0.71,0.32,1.64-.09,0.21,0.28,0-.25,0.22,0.28h0.17l-0.07-.11V14h0.4V13.89l-0.19-.15L16.88,10h-0.2l0.21-.2,0.06-1.2-0.19-.2V8.2L19,8q0,0.6.75,0.6l0.36,1-0.21.4h0.2a17.84,17.84,0,0,0-1.2,4.46H19l1.63,0.16-0.34.22-0.06.25,3.86-.32,0.42-5.54c0.37,1.12.27,3-.29,5.53l0.27,0-0.11.5H24.15l-0.07.32,0-.33a0.58,0.58,0,0,0-.63.42l0.28,0,0.86-.16-0.06.25L24.24,16l-0.06.25q0.71,0.07.71,0.47a0.5,0.5,0,0,1,0,.12L20,17.6l-0.06.25Zm2.83,1.55-0.48.09,1.33-2.2,0.48-.09Zm2.65-2.84L25,16.93l0.72-4,0.48-.09,0.85,1Zm3.26-1-0.24-.73,0.12-1.19,0.48-.09L30.23,14v1.56Z"/><polygon class="cls-1" points="16.08 24.34 16.49 23.94 16.54 23.34 16.14 23.34 16.08 24.34"/><polygon class="cls-1" points="16.71 12.98 16.91 12.98 16.98 11.59 16.79 11.59 16.71 12.98"/><path class="cls-1" d="M18.53,17.2l0,0.44,0,0.32,0.54,0L19,17.23Z"/><path class="cls-1" d="M19.47,15l-0.68.09c0,0.12,0,.24-0.06.36h0.08L20,15.31,20,15.08Z"/><polygon class="cls-1" points="16.43 14.4 16.63 14.41 16.68 13.58 16.48 13.58 16.43 14.4"/></svg>