<svg id="Layer_1" data-name="Layer 1" xmlns="http://www.w3.org/2000/svg" viewBox="0 0 5.45 5.16"><defs><style>.cls-1{fill:#da2222;}</style></defs><title>assets</title><path class="cls-1" d="M2.56,0.07a4.1,4.1,0,0,1,1.9.09L4.4,0.24l0,0.06L4.86,0.6l-0.16,0-0.1,0-0.08,0L5.2,1.89l0.08,0q-0.1-.3.06-0.33L5.42,1.79a4.21,4.21,0,0,1-.28,1.73l0.08,0A4.55,4.55,0,0,1,3.91,4.91l-0.38.14-0.08,0a2.7,2.7,0,0,1-2.78-.7l-0.44-.3L0.29,4,0.07,3.58l0-.12a3.27,3.27,0,0,1,.7-2l0,0.06A4.67,4.67,0,0,0,.23,3l0,0.06,0.08,0A5,5,0,0,1,1.74.42l-0.48.35-0.08,0Q1.09,0.51,2.56.07ZM0.27,3.41L0.43,3.9l0.08,0L0.35,3.4ZM1,2.37l-0.12.41L1,2.76l0.12-.41ZM4,2.58a2.15,2.15,0,0,0,.08-1M2,4.7L2,4.76,2.45,4.87l0-.06ZM4.09,2.88l-0.22.36,0.08,0,0.22-.36Zm0.18-.74L4.15,2.8l0.24,0,0.1-.47L4.35,2.12ZM4.91,2.27l0,0.2,0,0.12L5,2.58V2.32l0-.06Zm0-1.35L5,0.89l0.1,0.3L5,1.22Z"/></svg>