<svg id="Layer_1" data-name="Layer 1" xmlns="http://www.w3.org/2000/svg" viewBox="0 0 54.17 142.98"><defs><style>.cls-1{fill:#da2222;}</style></defs><title>assets</title><path class="cls-1" d="M53.64,91.88q-2.43.46-1.9,2.6l-1.62.31Q49.67,93,52.83,92L52.3,89.9q-4.18,3.69-3.63,5.91l-2.43.46,3-5-4-2.23-1.62.31L36.85,99.55,37,100.26l1.27-1.73,0.81-.15L38,100.82l-1-.56c-0.6,1.23-1.16,2.43-1.69,3.59l-0.21-4.4L36,98H35.69l1.1-2.12-0.18-.72-0.53.7,0-.86-0.83-1.49,0.29-8.84C36.45,57.12,38.87,33,42.85,12H42l0.88-1.55-1.51-6C39.17,4.47,38.12,3,38.26,0L29,1.48,29,3l0.78,1.48-0.24,9L28.64,15h0.83L26.1,43.1l0.78,1.44,0,1.44H25.17l0,1.49L25.9,49l-0.2,5.94L23.9,59.35,23.07,86.07l-1.29,19A111.32,111.32,0,0,0,13,89.19l-1.62.31L12,91.63l-0.81.15Q9.73,86.1,0,88l2.68,4L2.4,94.2q4.68-.89,15.38,38l1.06,4.27-0.63.87,0.81-.15-0.28,2.29,1.69,3.4,1.62-.31,0.63-.87L22.51,141l-1-.56L21,138.34l1.27-1.73L22,138.89q1.23,5,6.91,3.9l1.62-.31q-0.71-2.84,1.73-3.31l1,0.56,1.62-.31,10.33-30.28q5.37-12.2,9-15.13ZM13.47,111.46l-0.88-3.56,0.81-.15,0.88,3.56Zm3.28,9.8-1.94-7.83,0.81-.15,1.94,7.83Zm10.37-2.72,0.63-.87-1.49.14L26.39,114h1.66v0.2l-0.19.43L28,115.22l-0.15,3.48-0.48.84Zm2-91.56h0.83L29.61,37H28.78ZM27.81,42h0.83l-0.29,8H27.51ZM26.54,55h0.83l-0.24,9H26.29Zm7.36,77.17-0.81.15-1-.56q0.78-3.52,2.36-4.18Zm1-6.16-0.18-.71,1.9-2.6,0.18,0.71Zm8.5-24-0.81.15,1.55-4L45,98l0.18,0.71Z"/><path class="cls-1" d="M37.88,93.39l0.81-.15,2.54-3.46-0.18-.71Q39,89.93,37.88,93.39Z"/></svg>