<svg id="Layer_1" data-name="Layer 1" xmlns="http://www.w3.org/2000/svg" viewBox="0 0 85.87 62.36"><defs><style>.cls-1{fill:#da2222;}</style></defs><title>assets</title><path class="cls-1" d="M2,0a8.64,8.64,0,0,1-.78,1.93A22.84,22.84,0,0,0,0,5.62C1.4,7,1.78,8.88,1.15,11.5A4,4,0,0,0,1,14a10,10,0,0,1,.43,6.82,7.66,7.66,0,0,0,1,4.37,19.2,19.2,0,0,1,1.74,3.53,11.81,11.81,0,0,1,2.66,3,18.9,18.9,0,0,0,2.17,2.84q0.75,1.21,1.11,1.83c0.25,0.4.63,1,1.12,1.82A12.63,12.63,0,0,0,16,42.44c0.1,1.06-.09,1.45-0.54,1.17s-0.75-.1-0.91.56l-0.23,1A7.61,7.61,0,0,0,17.74,48a16.19,16.19,0,0,1,2.88,1,3.68,3.68,0,0,1,2,2.3A2.79,2.79,0,0,1,26,52.61a3.52,3.52,0,0,0,3.2,1.81l1,0.23,0.49,0.12a6.63,6.63,0,0,0,3.57,2.41,23.08,23.08,0,0,0,4.52.57A37,37,0,0,1,43.08,59a31.79,31.79,0,0,0,3.86,1.19,49.1,49.1,0,0,1,7,1.16,25.31,25.31,0,0,0,7.09.66,44.55,44.55,0,0,0,7.7.3l13.59-.13,3.58,0V0H2Z"/></svg>