<svg id="Layer_1" data-name="Layer 1" xmlns="http://www.w3.org/2000/svg" viewBox="0 0 40.79 28.92"><defs><style>.cls-1{fill:#fff;}</style></defs><title>assets</title><path class="cls-1" d="M22.39,13.71l-1.28-1-0.26.07A2.45,2.45,0,0,0,22.44,14Z"/><path class="cls-1" d="M40.33,19.92L40.07,20l-0.2.39-0.79.21-0.64-.5,0.85,0.11q1.84-.49,1.43-2.72l-0.12-.64a0.84,0.84,0,0,1-1.23-.67l0.2-.39-0.12-.64-11.21-4Q23.74,9,22.65,7.63l-0.79.21a0.73,0.73,0,0,0,1,.74l0.12,0.64q-0.66.18-1-1.06l-0.79.21Q22.5,10,23.32,9.79l0.17,1L21.63,9.57l-0.82,1.55,0.12,0.64,3.79,2.66L25,14.35l-0.64-.5-0.06-.32L25.19,14l-0.2.39q1.36,0.69,2.55,1.23l-2.59-.25-1.6-.88-0.26.07c0.32,0.26.63,0.5,0.94,0.71Q9.13,13.69,9.08,12.32l0-.72,0.35-.37-3.25-1A5.21,5.21,0,0,1,8.85,7l1.06-.2,2.53-.12a1,1,0,0,1,.85-1.26l-0.13-.7-0.42-.28-0.35.07-0.28.42-0.7.13-0.13-.7,2-.76L13,2.21A3.38,3.38,0,0,1,11.58.3L9.33,0q0.1,0.54-4.44,1.58l-0.35.07L4.34,0.59l0.28-.42-1.06.2L3,3c-2.11.4-3,2.49-3,4.87H0.36L0,8.27l0.41,1.78v0.36l-0.35.37Q1.26,14.33,2,14.31q0.1,3.48,24.89,6a40.84,40.84,0,0,0-5.94,3.49L21,24.42l0.79-.21,0.06,0.32q-2.1.56-1.4,4.38l1.46-1.06L22.78,28q-0.34-1.83,14-6.1l1.58-.42,0.32,0.25-0.06-.32,0.85,0.11,1.26-.67-0.12-.64ZM11.22,0.37l0.07,0.35-1.76.34L9.47,0.7Zm13,11.19-0.06-.32,0.26-.07,1.23,0.67,0.06,0.32Zm7.35,7-1.18.32,0-.66,1.13,0Zm-3.71,5.34-0.06-.32,1.31-.35,0.06,0.32Zm2-.88-0.06-.32L32.71,22l0.06,0.32Zm2.25-4.94,0-.78c0.31,0.09.62,0.16,0.9,0.21l0.06,0.32Zm2.1-2.9-1-.74,0.26-.07,1,0.74Zm2.39,1a2,2,0,0,1-1.55-.92l1.69,0.21,0.06,0.32Z"/><path class="cls-1" d="M9.42,11.59l0.39,1.06,0.72,0-0.37-.35V11.93l0.74,0.7h0.36l0.35-.37q0,1.07.75,1.05,0-.72,1.05-0.75V12.2l-3.6-.62H9.42Z"/><rect class="cls-1" x="13.75" y="12.53" width="1.43" height="0.36" transform="translate(-0.35 0.41) rotate(-1.59)"/></svg>