<svg id="Layer_1" data-name="Layer 1" xmlns="http://www.w3.org/2000/svg" viewBox="0 0 39.57 55.12"><defs><style>.cls-1{fill:#fff;}</style></defs><title>assets</title><path class="cls-1" d="M39.19,34.21l-0.65-.56-0.12-2.5,1.15-2L39,17.91l0.13-9.43L36.73,6.57,36,2.17l-3.26-.11-4.6-.89q0.09,2.21-2.8,6.58L25.44,9l0.83,4.3L25.68,14l0.62-.07-0.59.69,0,0.62,0.69,0.55,0.18,3.75a116.06,116.06,0,0,1-2.16,31l0.62-.07-0.59.69,1.4,2.36q2.48-.27,2.54,1.61l9.93-1.36,0-.62-0.65-.56-0.22-3.74L38,48.14l-0.62.07,1.25-12.06L38,35.59,38,35l1.24-.13ZM34.39,7.44L33.88,5.64,34.64,4l0.92,3Zm2.16,35.83L36.3,38.91l0.62-.07,0.25,4.37ZM36.83,37l-0.18-3.75,0.62-.07,0.18,3.75Zm0.35-5.69L37,27.54l0.62-.07,0.22,3.74Z"/><path class="cls-1" d="M14.28,1.65Q11.8,1.88,11.77,0L1.62,1.25l0,0.63L2.28,2.45,2.44,6.19l-0.6.68,0.62-.06L1,18.86l0.64,0.57,0,0.63-1.24.11,0,0.62L1.1,21.35l0.08,2.5L0,25.84,0.4,37.09,0.12,46.51l2.6,2.27L2.24,53.21l3.11,1L11.14,54q-0.06-2.21,2.9-6.53l0-1.25-0.76-4.32,0.6-.68-0.62.06,0.6-.68,0-.63-0.68-.56L13,35.61c-0.4-11.59-.37-22.36.81-31l-0.62.06L15.65,4ZM2,27.54L1.8,23.8l0.62-.06,0.16,3.75Zm0.4-5.68L2.24,18.12l0.62-.06L3,21.81ZM2.8,16.19L2.62,11.82l0.62-.06,0.18,4.37Zm1.27,35.6L4,48.67l1.24-.11,0,1.88Z"/></svg>