<svg id="Layer_1" data-name="Layer 1" xmlns="http://www.w3.org/2000/svg" viewBox="0 0 115.89 115.58"><defs><style>.cls-1{fill:#da2222;}</style></defs><title>assets</title><path class="cls-1" d="M105.62,29.67a0.62,0.62,0,0,1,.51.48,1.56,1.56,0,0,0,.23.59,2.57,2.57,0,0,0,1.2,2.78,1.9,1.9,0,0,1,.75,1.6,19.74,19.74,0,0,0,1.12,2.41,7.17,7.17,0,0,1,.83,2.52q0.9,2.36,2.64,2.24a18.58,18.58,0,0,1,.77,3.48,21.51,21.51,0,0,0,.62,3.27c-0.09.57,0.44,0.64,1.6,0.2a1.24,1.24,0,0,1-.71,1.08l-0.28.65q1.17,0.64.89,1.28l-0.56,1.29a2.84,2.84,0,0,0-.28,1.18,2.91,2.91,0,0,1-.28,1.18c0.3,0.43.25,0.71-.13,0.86a2.13,2.13,0,0,0-.92,2.1,20.43,20.43,0,0,0,.54,2.09,7.87,7.87,0,0,1,.11,2.79,10.51,10.51,0,0,1-.76,2.58,2.84,2.84,0,0,0-.28,1.18,6.64,6.64,0,0,0,.16,1.29c-0.08.94-.22,2-0.4,3.12-0.28.65,0.11,0.86,1.17,0.64a3.75,3.75,0,0,1-1.73,1.19,2.63,2.63,0,0,0-1.58,1.41c0.1,0.14,0,.18-0.29.11l-0.29.11a2.64,2.64,0,0,1-.66-0.42,3,3,0,0,0-.66-0.43,1.91,1.91,0,0,0,.38,1.07,1.92,1.92,0,0,1,.38,1.07,1.43,1.43,0,0,1-.55,2.37,4.55,4.55,0,0,0-2.58,2.59,0.67,0.67,0,0,1-.28.38,0.66,0.66,0,0,0-.29.38c-1.05,1.3-2.95,2.48-3.21,3.32a13.23,13.23,0,0,0-.27,4.11,1.81,1.81,0,0,1-.91.75,1.54,1.54,0,0,0-.5,1.06,1.57,1.57,0,0,1-.3,1c-0.13.42-.34,0.53-0.61,0.32q-0.51,0-.31-0.63A27.65,27.65,0,0,0,101.1,89l0.1,0.21L101.1,89a0.66,0.66,0,0,1,.2-0.37,0.65,0.65,0,0,0,.2-0.37l-0.31-.63-0.2.11a0.42,0.42,0,0,0-.2.63L101.1,89a2.39,2.39,0,0,0-1.82,1q-0.6.85-1.41,1.8a1.4,1.4,0,0,0,0,1.05,6.22,6.22,0,0,0,.63,1.78c-1.41,1.28-4.45,3-5.78,4.95a1.2,1.2,0,0,0,.44.37,1.27,1.27,0,0,1,.44.37,1.07,1.07,0,0,1-.85,1.4,6.89,6.89,0,0,0-2.32.34,10.35,10.35,0,0,0-1.14,2,20.91,20.91,0,0,1-1.87,1.52c-1.35.15-2.47,0.3-3.33,0.45a4.21,4.21,0,0,1-1.78,2.43q-1.37.92-2.66,1.68a0.75,0.75,0,0,1-.43.43l-0.29.11a7.9,7.9,0,0,1-3.81,2.65q-2.24.72-4.7,1.37a21.5,21.5,0,0,1-7.83.81q-1.89-.09-3.34-0.08c-1,0-2.08,0-3.34-.08A8.39,8.39,0,0,1,53.3,115a8.63,8.63,0,0,0-2.62-.36,38.79,38.79,0,0,1-6.7-1.51q-3.06-1-6.13-2.26a22.14,22.14,0,0,1-4.53-2.33,19.5,19.5,0,0,1-1.9-.9l-2-1.11a24.4,24.4,0,0,1-5.69-2.43,9.12,9.12,0,0,1-1.38-.42,9.87,9.87,0,0,0-1.38-.42A5.58,5.58,0,0,1,17.85,102Q9.2,95.29,5.33,87.58a44.6,44.6,0,0,1-3.82-9.47A35.36,35.36,0,0,1,.29,68.19q0-2.14-.06-4.29c0-1.43,0-2.86-.05-4.29A20.91,20.91,0,0,1,.52,52.2a33,33,0,0,0,1.08-5.8,18.47,18.47,0,0,1,1.52-5.7L4,38.76a79.78,79.78,0,0,1,4.88-15.6,65,65,0,0,1,4.53-9.26A21.14,21.14,0,0,1,17,9.58a9.56,9.56,0,0,0,1.93-2.21c0.52-.82,3.94-0.34,4.5-0.79,0.52-.63,1-1.21,1.58-1.75S26,3.7,26.56,3.07a1.38,1.38,0,0,0,.38-0.25,1.4,1.4,0,0,1,.38-0.25,13.36,13.36,0,0,0,3.94-1.23A8,8,0,0,1,33.34.68l1.92-.3a17.16,17.16,0,0,0,1.8,0q0.92-.06,1.8,0L39.14,0.5c0,0.6.07,0.92,0.29,1a13.34,13.34,0,0,0,2.16,0l1.07-.2c0.32,0,2.84-.49,3.23-0.64L50,0.12a22.45,22.45,0,0,1,4.35,0c1,0,2.72.78,3.49,0.49,1.54-.48,3.46,0,5.79.52A28.43,28.43,0,0,1,72,3.83a9.93,9.93,0,0,0,2.48.95q2.63,1.17,5.11,2.11a40.57,40.57,0,0,1,4.82,2.22,17.54,17.54,0,0,1,4.25,3,1,1,0,0,1,.58.32,0.94,0.94,0,0,0,.58.32A4.24,4.24,0,0,1,92.51,15a4.52,4.52,0,0,0,1.91,1.7,1.25,1.25,0,0,1,.73.53,9.18,9.18,0,0,0,2.22,2.94q1.47,1.33,2.79,2.72l2.66,3.85,1.11,1.6A4.71,4.71,0,0,0,105.62,29.67ZM71.8,108.73a6.22,6.22,0,0,0-1.13-.14,7,7,0,0,0-3,.42q-1.28.51-2.39,1.09-0.48.15-.23,0.43a0.81,0.81,0,0,0,.89.33q1.28-.15,2.53-0.35a5.77,5.77,0,0,0,2.28-.87,1.31,1.31,0,0,1,.4-0.24,1.31,1.31,0,0,0,.4-0.24ZM49.63,17.2a2.45,2.45,0,0,0-1.8,1.16,9.47,9.47,0,0,0,1.5.16,31.48,31.48,0,0,1,4-.21c1.36,0,2.78.05,4.29,0.12a7.85,7.85,0,0,0,3.21,0q-1.51-.7-3-1.27a16.73,16.73,0,0,0-3.12-.83,5.91,5.91,0,0,0-3.1.4A3.73,3.73,0,0,1,49.63,17.2Zm60.14,53.23c-0.77.29-1.1,0.6-1,.92a3.68,3.68,0,0,1,.16,1,1.65,1.65,0,0,0,.88.75,1.22,1.22,0,0,0,.72,0,3.43,3.43,0,0,1,1-.11Z"/></svg>