<svg id="Layer_1" data-name="Layer 1" xmlns="http://www.w3.org/2000/svg" viewBox="0 0 42.98 55"><defs><style>.cls-1{fill:#fff;}</style></defs><title>assets</title><path class="cls-1" d="M41.1,25.45l-0.32.37L40.69,27l-1,1.11-1.11-.85,1.2-.32c1.49-1.73,3.75,1.21,3-1.94l-0.31-1.35a1.61,1.61,0,0,1-2.41-1.33l0.33-.85-0.31-1.35L18,8.11C15.6,6.69,10.34,3.2,9,2.61l0.13-.1L7.76,1.34a5.24,5.24,0,0,1-1.31,0C6.11,1.16,5.79,1,5.52.78A0.79,0.79,0,0,1,5.46.61l-0.16,0A6.67,6.67,0,0,1,4.51,0l-1.19.31a1.91,1.91,0,0,0,.32.6H3.56l-0.09-.2L2.27,1l0.1,0.09L0,1.88,0.08,2.56,0.84,3.12l0.54,4.1L0.8,8,1.47,7.9,1.08,21.26l0.76,0.56L1.93,22.5l-1.35.25,0.08,0.68L1.42,24l0.34,2.73L0.65,29l1.55,12.3-1,10.81,2,1c0,1,.08.34,0.41,1.47l0.7,0.07,0.4,0L4.72,55l0.16-.25L7.82,55l2.62-.84c-0.39-1.57.52-1.93,1.75-3l-0.1-.83c4.19-3.31,15.54-8.86,21-14.36l6.12-5.22L39.8,31.2l-0.24-.79,1.2-.32,1.36-2.64-0.47-1.59ZM13.1,11.2l-1.64-.87c0-.34.06-0.68,0.1-1l1.37,1ZM2.82,13.25L3.45,18l-0.68.12L2.15,13.37Zm0.2,7,0.5,4.1-0.68.12-0.5-4.1Zm-0.6,6.4,0.68-.12,0.54,4.1L3,30.7Zm16.39,17-0.18-.9,2.52-1.09,0.18,0.9ZM22.67,41l-0.18-.9L28,37.66l0.18,0.9ZM11,20.59a13.44,13.44,0,0,0,5,3,0.17,0.17,0,0,0,.12,0l0.45-.19-5.5-3.94a0.17,0.17,0,0,1-.07-0.14q0-1.07,0-2.12l0.58,0.52,0.5-.22-0.41-.41,0.62-.78h0a0.17,0.17,0,0,1,.08.19l-0.25.87a0.17,0.17,0,0,0,.07.19m17.37,0.8-2.05-2,0.5-.22,2.05,2Zm4.93,2.76q-2.63-.76-3.24-2.51l3.38,0.49L34.9,20Z"/><polygon class="cls-1" points="19.07 22.93 18.5 24.53 18.68 25.43 19.43 24.73 19.93 24.52 19.75 23.61 19.07 22.93"/><polygon class="cls-1" points="19.93 24.52 22.49 26.35 22.99 26.13 20.44 24.3 19.93 24.52"/></svg>