<svg id="Layer_1" data-name="Layer 1" xmlns="http://www.w3.org/2000/svg" viewBox="0 0 32.92 31.16"><defs><style>.cls-1{fill:#7b7b7b;}</style></defs><title>assets</title><polygon class="cls-1" points="31.07 7.21 30.46 5.37 29.5 5.56 30.1 7.39 31.07 7.21"/><path class="cls-1" d="M32.76,10.78L32.28,9.32q-1,.18-0.36,2l-0.48.09L27.32,3.63l0.48-.09,0.6,0.27,1-.18L26.71,1.8l-0.12-.37L27,1A24.78,24.78,0,0,0,15.48.43Q6.59,3.07,7.15,4.75l0.48-.09,2.9-2.11Q2,12.89,2,18.6l-0.48.09-0.12-.37A28.18,28.18,0,0,1,4.5,9.15L4.37,8.79Q-0.84,17.85.16,20.9l0.24,0.73L1.74,24.1l-0.36.46L4,26.4q5.32,6.39,16.8,4.21l0.48-.09,2.29-.83q5.73-4.33,8-8.53l-0.48.09Q33.45,12.85,32.76,10.78ZM2.58,23.55l-1-2.93,0.48-.09,1,2.93Zm22-14.32q0.61,1.86-.48,6.33ZM6,16.67l-0.48.09,0.72-2.48,0.48-.09ZM12,28.77l-0.12-.37L14.67,29l0.12,0.37ZM23,18a25.49,25.49,0,0,0-8.16-.92l-1,0-0.15.22H13.5l-0.18-.19v0.2l-0.18-.19L12,17.38H11.69A3.18,3.18,0,0,0,10,16.45l-0.06-.79,0.26-1,1.17,0.16,0.6-.83,2.48,0.11,3-.1,0.52,0.38,0.66,0,0.15-.2H18.9l0,0.4h0.16l0.15-.2,3.17,0.49v-0.2l0.18,0.19,1,0,0.15-.2h0.16l0.32,2.19q-0.5,0-.44.8L23.13,18l-0.18-.19V18Zm0.87,1.5-0.48.09,1.33-2.2,0.48-.09Zm2.65-2.84L25,16.93l0.72-4,0.48-.09,0.85,1Zm3.26-1-0.24-.73,0.12-1.19,0.48-.09L30.23,14v1.56Z"/><polygon class="cls-1" points="19.94 14.92 19.95 15.12 21.11 15.07 21.09 14.88 19.94 14.92"/><polygon class="cls-1" points="10.55 15.25 10.91 15.63 11.4 15.62 11.37 15.22 10.55 15.25"/><polygon class="cls-1" points="18.44 14.77 18.46 14.97 19.45 14.94 19.43 14.74 18.44 14.77"/><polygon class="cls-1" points="16.95 14.63 16.96 14.83 17.95 14.79 17.93 14.59 16.95 14.63"/></svg>