<svg id="Layer_1" data-name="Layer 1" xmlns="http://www.w3.org/2000/svg" viewBox="0 0 50.72 18.96"><defs><style>.cls-1{fill:#da2222;}</style></defs><title>assets</title><path class="cls-1" d="M33.15,5.4L31.9,4.57l-0.25.07a2.29,2.29,0,0,0,1.56,1Z"/><path class="cls-1" d="M0.68,10.14H1.2L1.7,9.84l3,0,0.46,0.29V9.8l9.94,0.76,0.54-.3h0.55l0,0.58h0.52l0.51-.29,2.07,0,1.58,0.56,9.32-.1,7.2,0.19a38.53,38.53,0,0,0-5.33,3.23L32.24,15,33,14.74,33,15q-2,.57-1.17,3.94l1.34-1L34,18q-0.38-1.62,13-5.91l1.47-.43,0.31,0.21-0.07-.28,0.8,0.06L50.72,11l-0.13-.56-0.31-.21L50,10.34l-0.18.35-0.74.22-0.62-.42,0.8,0.06q1.72-.5,1.26-2.47l-0.13-.56A0.79,0.79,0,0,1,49.24,7l0.18-.35-0.13-.56L38.59,2.91Q34.26,1.22,33.19,0l-0.74.22a0.68,0.68,0,0,0,.93.63L33.52,1.4q-0.62.18-1-.91l-0.74.22q1.35,1.4,2.11,1.18l0.2,0.84-1.8-1L31.58,3.17l0.13,0.56L35.37,6l0.25-.07L35,5.46l-0.07-.28L35.8,5.53l-0.18.35,1.21,0.51-1.66.15L34.08,6l-0.51.08a0.24,0.24,0,0,1,.09.25V6.68L33.4,6.45H33l-0.44.24H29.4A172.17,172.17,0,0,1,3.89,5.2V5.48L3.47,5.19l-2,.61C1.51,6.57,1,7,0,7ZM41.85,9L42,9.39l-1.9,0,0-.58h0.68l0,0,0.09,0h0.66Zm-2.18,1.2-0.11.22,0-.13Zm-1,4.08L38.57,14l1.23-.36,0.07,0.28Zm1.9-.86-0.07-.28,2.7-.79,0.07,0.28ZM46.77,6.5l0.07,0.28-0.18.35a1.9,1.9,0,0,1-1.49-.76Zm-3.09-.89,0.93,0.63-0.25.07-0.93-.63Zm-8.9-2.18-0.07-.28L35,3.08l1.18,0.55L36.2,3.91ZM19.5,9.93l3.3-.05v0.29l-3.3.05V9.93Zm-4.41-.26h2.2V10H15.1V9.67ZM9.57,9.46l3.3,0V9.71l-3.3,0V9.46Z"/></svg>